<?xml version="1.0" encoding="UTF-8"?>
<svg xmlns="http://www.w3.org/2000/svg" xmlns:xlink="http://www.w3.org/1999/xlink" width="100pt" height="100pt" viewBox="0 0 100 100" version="1.1">
<g id="surface1">
<path style=" stroke:none;fill-rule:nonzero;fill:#5B5B5B;fill-opacity:1;" d="M 89.085938 28.769531 C 88.292969 24.40625 84.527344 21.230469 80.15625 20.238281 C 73.613281 18.847656 61.507813 17.855469 48.410156 17.855469 C 35.320313 17.855469 23.019531 18.847656 16.46875 20.238281 C 12.105469 21.230469 8.332031 24.203125 7.542969 28.769531 C 6.742188 33.730469 5.953125 40.675781 5.953125 49.601563 C 5.953125 58.53125 6.742188 65.476563 7.734375 70.4375 C 8.535156 74.800781 12.300781 77.976563 16.664063 78.96875 C 23.609375 80.355469 35.511719 81.347656 48.609375 81.347656 C 61.710938 81.347656 73.613281 80.355469 80.558594 78.96875 C 84.921875 77.976563 88.6875 75 89.488281 70.4375 C 90.277344 65.476563 91.269531 58.332031 91.472656 49.601563 C 91.066406 40.675781 90.078125 33.730469 89.085938 28.769531 Z M 37.699219 63.492188 L 37.699219 35.714844 L 61.902344 49.601563 Z "/>
</g>
</svg>
