<?xml version="1.0" encoding="UTF-8"?>
<svg xmlns="http://www.w3.org/2000/svg" xmlns:xlink="http://www.w3.org/1999/xlink" width="100pt" height="100pt" viewBox="0 0 100 100" version="1.1">
<g id="surface1">
<path style=" stroke:none;fill-rule:nonzero;fill:#5B5B5B;fill-opacity:1;" d="M 81.347656 7.9375 L 17.855469 7.9375 C 12.378906 7.9375 7.9375 12.378906 7.9375 17.855469 L 7.9375 81.347656 C 7.9375 86.828125 12.378906 91.269531 17.855469 91.269531 L 81.347656 91.269531 C 86.828125 91.269531 91.269531 86.828125 91.269531 81.347656 L 91.269531 17.855469 C 91.269531 12.378906 86.828125 7.9375 81.347656 7.9375 Z M 73.414063 37.699219 L 69.445313 37.699219 C 65.195313 37.699219 63.492188 38.691406 63.492188 41.667969 L 63.492188 47.617188 L 73.414063 47.617188 L 71.429688 57.539063 L 63.492188 57.539063 L 63.492188 87.300781 L 53.570313 87.300781 L 53.570313 57.539063 L 45.636719 57.539063 L 45.636719 47.617188 L 53.570313 47.617188 L 53.570313 41.667969 C 53.570313 33.730469 57.539063 27.777344 65.476563 27.777344 C 71.226563 27.777344 73.414063 29.761719 73.414063 29.761719 Z "/>
</g>
</svg>
