<?xml version="1.0" encoding="UTF-8"?>
<svg xmlns="http://www.w3.org/2000/svg" xmlns:xlink="http://www.w3.org/1999/xlink" width="100pt" height="100pt" viewBox="0 0 100 100" version="1.1">
<g id="surface1">
<path style=" stroke:none;fill-rule:nonzero;fill:#5B5B5B;fill-opacity:1;" d="M 99.332031 20.710938 C 95.664063 22.335938 91.734375 23.429688 87.605469 23.925781 C 91.820313 21.398438 95.058594 17.398438 96.578125 12.640625 C 92.640625 14.972656 88.261719 16.671875 83.621094 17.585938 C 79.898438 13.617188 74.597656 11.144531 68.730469 11.144531 C 57.460938 11.144531 48.324219 20.273438 48.324219 31.542969 C 48.324219 33.140625 48.511719 34.699219 48.859375 36.195313 C 31.902344 35.34375 16.871094 27.21875 6.804688 14.875 C 5.046875 17.894531 4.046875 21.398438 4.046875 25.136719 C 4.046875 32.210938 7.640625 38.457031 13.121094 42.125 C 9.773438 42.015625 6.625 41.09375 3.875 39.566406 C 3.875 39.652344 3.875 39.738281 3.875 39.820313 C 3.875 49.710938 10.914063 57.949219 20.238281 59.832031 C 18.53125 60.300781 16.726563 60.546875 14.867188 60.546875 C 13.546875 60.546875 12.269531 60.421875 11.019531 60.175781 C 13.625 68.273438 21.160156 74.1875 30.078125 74.351563 C 23.105469 79.824219 14.308594 83.078125 4.742188 83.078125 C 3.09375 83.078125 1.472656 82.984375 -0.117188 82.789063 C 8.90625 88.589844 19.632813 91.960938 31.15625 91.960938 C 68.683594 91.960938 89.207031 60.871094 89.207031 33.917969 C 89.207031 33.03125 89.183594 32.140625 89.152344 31.273438 C 93.136719 28.398438 96.59375 24.800781 99.332031 20.710938 Z "/>
</g>
</svg>
